<mxfile host="app.diagrams.net" modified="2024-05-10T07:36:59.321Z" agent="Mozilla/5.0 (Windows NT 10.0; Win64; x64) AppleWebKit/537.36 (KHTML, like Gecko) Chrome/124.0.0.0 Safari/537.36 Edg/124.0.0.0" etag="XNsWEVt2LNWaWPE0fLya" version="24.3.1" type="device">
  <diagram name="ページ1" id="THYPtHgm8bTKTncJyfIW">
    <mxGraphModel dx="1242" dy="577" grid="1" gridSize="10" guides="1" tooltips="1" connect="1" arrows="1" fold="1" page="1" pageScale="1" pageWidth="827" pageHeight="1169" math="0" shadow="0">
      <root>
        <mxCell id="0" />
        <mxCell id="1" parent="0" />
        <mxCell id="9ynuoHAPMGHdHzB39CvP-6" style="edgeStyle=orthogonalEdgeStyle;rounded=0;orthogonalLoop=1;jettySize=auto;html=1;exitX=0.5;exitY=1;exitDx=0;exitDy=0;entryX=0.5;entryY=0;entryDx=0;entryDy=0;" edge="1" parent="1" source="9ynuoHAPMGHdHzB39CvP-1" target="9ynuoHAPMGHdHzB39CvP-2">
          <mxGeometry relative="1" as="geometry" />
        </mxCell>
        <mxCell id="9ynuoHAPMGHdHzB39CvP-1" value="Get_Input()&lt;br&gt;開始" style="ellipse;whiteSpace=wrap;html=1;" vertex="1" parent="1">
          <mxGeometry x="80" y="40" width="120" height="40" as="geometry" />
        </mxCell>
        <mxCell id="9ynuoHAPMGHdHzB39CvP-7" style="edgeStyle=orthogonalEdgeStyle;rounded=0;orthogonalLoop=1;jettySize=auto;html=1;exitX=0.5;exitY=1;exitDx=0;exitDy=0;entryX=0.5;entryY=0;entryDx=0;entryDy=0;" edge="1" parent="1" source="9ynuoHAPMGHdHzB39CvP-2">
          <mxGeometry relative="1" as="geometry">
            <mxPoint x="140" y="200" as="targetPoint" />
          </mxGeometry>
        </mxCell>
        <mxCell id="9ynuoHAPMGHdHzB39CvP-2" value="getch()関数で&lt;div&gt;キー入力を受け取る&lt;/div&gt;" style="rounded=0;whiteSpace=wrap;html=1;" vertex="1" parent="1">
          <mxGeometry x="80" y="120" width="120" height="40" as="geometry" />
        </mxCell>
        <mxCell id="9ynuoHAPMGHdHzB39CvP-10" style="edgeStyle=orthogonalEdgeStyle;rounded=0;orthogonalLoop=1;jettySize=auto;html=1;exitX=0.5;exitY=1;exitDx=0;exitDy=0;entryX=0.5;entryY=0;entryDx=0;entryDy=0;" edge="1" parent="1" source="9ynuoHAPMGHdHzB39CvP-8" target="9ynuoHAPMGHdHzB39CvP-9">
          <mxGeometry relative="1" as="geometry" />
        </mxCell>
        <mxCell id="9ynuoHAPMGHdHzB39CvP-8" value="受け取った&lt;div&gt;キー入力を返す&lt;/div&gt;" style="rounded=0;whiteSpace=wrap;html=1;" vertex="1" parent="1">
          <mxGeometry x="80" y="200" width="120" height="40" as="geometry" />
        </mxCell>
        <mxCell id="9ynuoHAPMGHdHzB39CvP-9" value="Get_Input()&lt;div&gt;終了&lt;/div&gt;" style="ellipse;whiteSpace=wrap;html=1;" vertex="1" parent="1">
          <mxGeometry x="80" y="280" width="120" height="40" as="geometry" />
        </mxCell>
      </root>
    </mxGraphModel>
  </diagram>
</mxfile>
